<?xml version="1.0" standalone="no"?>
<!DOCTYPE svg PUBLIC "-//W3C//DTD SVG 20010904//EN"
 "http://www.w3.org/TR/2001/REC-SVG-20010904/DTD/svg10.dtd">
<svg version="1.0" xmlns="http://www.w3.org/2000/svg"
 width="600.000000pt" height="235.000000pt" viewBox="0 0 600.000000 235.000000"
 preserveAspectRatio="xMidYMid meet">

<g transform="translate(0.000000,235.000000) scale(0.100000,-0.100000)"
fill="#000000" stroke="none">
<path d="M1213 2090 c-83 -58 -180 -160 -207 -215 -10 -22 -23 -48 -28 -58 -5
-10 -12 -47 -15 -83 -3 -35 -9 -64 -13 -64 -3 0 -31 13 -61 30 -85 46 -221 56
-326 24 -32 -9 -47 -69 -48 -189 0 -89 3 -107 28 -159 15 -32 27 -59 27 -61 0
-1 -27 -5 -59 -8 -32 -4 -83 -16 -113 -27 -62 -23 -188 -122 -188 -148 0 -27
91 -181 139 -235 52 -57 101 -90 159 -107 37 -12 40 -15 31 -37 -29 -77 10
-235 65 -261 48 -23 168 -35 228 -23 194 41 351 197 428 427 14 43 16 53 5 39
-36 -48 -154 -174 -200 -213 -96 -82 -218 -121 -330 -107 l-55 6 0 53 0 53 82
7 c139 12 297 76 437 178 72 53 73 55 10 33 -276 -98 -539 -58 -746 111 -24
20 -43 39 -43 44 0 4 29 16 64 25 48 13 89 16 167 13 92 -4 123 -11 259 -56
163 -53 316 -95 331 -90 5 2 -39 32 -98 67 -233 139 -309 201 -377 303 -39 58
-76 152 -76 193 0 23 3 25 28 19 193 -43 302 -147 502 -477 29 -48 55 -86 57
-83 7 6 -23 111 -78 276 -47 140 -52 164 -53 245 0 91 18 183 51 254 22 47 84
141 93 141 4 0 20 -19 37 -42 74 -104 107 -212 106 -348 0 -86 -4 -109 -47
-240 -47 -143 -89 -291 -83 -296 1 -1 29 40 61 93 160 262 265 383 379 437 68
32 139 51 150 40 11 -11 -25 -130 -54 -180 -64 -113 -151 -187 -380 -324 -73
-44 -126 -80 -118 -80 28 0 209 50 363 100 139 45 165 50 243 50 81 0 195 -19
210 -34 10 -10 -37 -54 -107 -101 -167 -111 -357 -141 -565 -91 -55 14 -112
29 -127 35 -16 6 -28 9 -28 6 0 -10 133 -97 205 -133 106 -53 193 -79 288 -88
l77 -6 0 -53 c0 -60 -6 -65 -79 -65 -73 0 -150 17 -211 47 -54 26 -208 169
-278 258 l-32 40 23 -66 c60 -169 181 -317 312 -379 61 -30 82 -35 167 -38 73
-3 110 0 152 13 53 17 55 19 77 77 18 49 21 72 16 138 l-5 79 49 16 c90 30
171 116 248 265 l41 78 -59 55 c-75 69 -126 93 -226 108 -44 6 -81 13 -83 14
-1 1 10 26 25 56 22 44 28 71 31 145 5 98 -16 197 -42 207 -20 8 -177 22 -205
19 -43 -6 -146 -44 -154 -58 -4 -8 -16 -14 -26 -14 -15 0 -19 11 -24 59 -11
100 -42 165 -116 243 -57 61 -191 168 -211 168 -3 0 -38 -22 -77 -50z"/>
<path d="M2490 1734 c0 -4 39 -112 87 -241 84 -223 89 -233 114 -233 16 0 30
7 34 18 4 9 40 105 80 212 40 107 78 207 84 223 10 25 9 27 -13 27 -22 0 -30
-17 -97 -205 -41 -113 -79 -205 -86 -205 -12 0 -13 1 -101 245 -49 134 -62
161 -80 163 -12 2 -22 0 -22 -4z"/>
<path d="M4602 1728 c7 -19 45 -21 51 -4 5 12 -1 16 -24 16 -20 0 -29 -4 -27
-12z"/>
<path d="M4370 1685 c0 -41 -2 -45 -25 -45 -20 0 -25 -5 -25 -25 0 -20 5 -25
25 -25 l25 0 0 -136 c0 -74 4 -144 10 -154 11 -21 60 -40 101 -40 24 0 29 4
29 25 0 21 -5 25 -31 25 -66 0 -69 7 -69 150 l0 130 50 0 c47 0 50 2 50 25 0
23 -3 25 -50 25 l-50 0 0 45 c0 38 -3 45 -20 45 -17 0 -20 -7 -20 -45z"/>
<path d="M3080 1633 c-96 -36 -140 -174 -89 -280 28 -57 70 -86 134 -91 56 -5
96 10 129 47 27 30 36 26 36 -14 0 -28 4 -35 20 -35 19 0 20 7 20 93 0 81 -2
94 -20 105 -18 11 -20 10 -20 -13 0 -76 -61 -135 -138 -135 -82 0 -129 44
-138 128 -9 86 47 154 129 156 39 1 43 3 39 24 -4 19 -10 22 -46 21 -22 0 -48
-3 -56 -6z"/>
<path d="M3610 1623 c0 -14 11 -23 39 -32 23 -6 50 -25 64 -42 16 -21 31 -30
45 -27 20 3 21 4 5 36 -21 42 -64 73 -113 79 -35 5 -40 3 -40 -14z"/>
<path d="M3951 1624 c-92 -47 -121 -216 -52 -301 64 -77 181 -84 245 -14 27
30 36 26 36 -14 0 -31 3 -35 25 -35 l25 0 0 190 0 190 -25 0 c-21 0 -25 -5
-25 -28 0 -43 -10 -45 -47 -10 -28 27 -42 32 -90 35 -41 3 -68 -1 -92 -13z
m167 -50 c56 -37 79 -131 47 -194 -25 -48 -62 -70 -117 -70 -84 0 -127 36
-143 121 -12 66 37 145 100 162 29 8 86 -2 113 -19z"/>
<path d="M4610 1450 c0 -183 1 -190 20 -190 19 0 20 7 20 190 0 183 -1 190
-20 190 -19 0 -20 -7 -20 -190z"/>
<path d="M4852 1623 c-69 -34 -110 -117 -98 -201 13 -98 73 -154 170 -160 54
-3 66 0 107 26 46 30 71 68 84 129 6 31 5 32 -17 24 -14 -5 -27 -21 -32 -40
-5 -17 -24 -45 -43 -61 -28 -25 -42 -30 -86 -30 -92 1 -137 46 -137 140 0 66
24 111 69 131 21 10 31 21 31 36 0 27 -5 28 -48 6z"/>
<path d="M5338 1629 c-10 -5 -18 -17 -18 -26 0 -12 7 -14 31 -9 51 10 107 -10
129 -47 17 -27 20 -51 20 -159 0 -121 1 -128 20 -128 19 0 20 7 20 135 0 155
-11 193 -62 225 -36 22 -111 27 -140 9z"/>
<path d="M3462 1507 c-28 -30 -29 -96 -2 -154 27 -60 45 -57 34 5 -4 26 -8 75
-7 110 0 34 0 62 -2 62 -1 0 -11 -10 -23 -23z"/>
<path d="M3712 1350 c-13 -17 -39 -34 -62 -41 -28 -9 -40 -18 -40 -31 0 -48
114 0 149 63 l22 39 -23 0 c-15 0 -33 -11 -46 -30z"/>
<path d="M2520 790 l0 -240 120 0 120 0 0 25 0 25 -100 0 -100 0 0 85 0 85 90
0 c89 0 90 0 90 25 0 25 -1 25 -90 25 l-91 0 3 83 3 82 98 3 c89 2 97 4 97 22
0 19 -7 20 -120 20 l-120 0 0 -240z"/>
<path d="M4380 975 c0 -38 -3 -45 -20 -45 -15 0 -20 -7 -20 -25 0 -18 5 -25
20 -25 19 0 20 -7 20 -112 0 -146 11 -185 55 -204 19 -8 48 -14 65 -14 25 0
30 4 30 25 0 22 -4 25 -38 25 -21 0 -43 5 -50 12 -8 8 -12 54 -12 140 l0 128
50 0 c47 0 50 2 50 25 0 23 -3 25 -50 25 l-50 0 0 45 c0 41 -2 45 -25 45 -23
0 -25 -4 -25 -45z"/>
<path d="M2840 925 c0 -3 25 -44 55 -90 30 -47 55 -90 55 -95 0 -6 -25 -49
-55 -95 -30 -47 -55 -88 -55 -90 0 -3 9 -5 19 -5 13 0 33 23 62 70 24 39 49
70 55 70 7 0 32 -31 55 -70 34 -55 49 -70 67 -70 30 0 28 5 -37 104 -28 43
-51 83 -51 87 0 5 25 48 55 94 30 47 55 88 55 90 0 3 -9 5 -19 5 -13 0 -33
-23 -62 -70 -24 -38 -49 -70 -55 -70 -6 0 -31 32 -55 70 -33 53 -49 70 -66 70
-13 0 -23 -2 -23 -5z"/>
<path d="M3210 650 c0 -273 0 -280 20 -280 19 0 20 7 20 125 0 94 3 125 13
125 7 0 17 -8 24 -18 28 -46 145 -68 191 -36 12 8 22 26 22 40 0 28 -7 29 -34
9 -24 -18 -105 -20 -141 -3 -62 28 -88 135 -51 206 34 65 121 85 199 46 26
-14 27 -13 27 10 0 59 -114 78 -183 31 -20 -14 -37 -30 -37 -35 0 -6 -7 -10
-15 -10 -10 0 -15 11 -15 35 0 28 -4 35 -20 35 -20 0 -20 -7 -20 -280z"/>
<path d="M3770 923 c-99 -41 -142 -179 -87 -284 59 -111 225 -121 295 -18 l24
34 -22 3 c-14 2 -33 -7 -51 -26 -61 -62 -176 -45 -212 31 -9 19 -17 40 -17 46
0 8 49 11 156 11 l157 0 -6 49 c-12 104 -63 154 -162 158 -33 1 -67 0 -75 -4z
m144 -58 c28 -18 51 -68 42 -90 -4 -12 -27 -15 -125 -15 -72 0 -122 4 -126 10
-11 19 30 83 66 102 39 22 103 19 143 -7z"/>
<path d="M4110 740 c0 -180 1 -190 19 -190 17 0 19 10 22 128 5 152 15 176 84
194 37 10 45 16 45 35 0 15 -6 23 -17 23 -23 0 -83 -36 -83 -50 0 -5 -7 -10
-15 -10 -10 0 -15 10 -15 30 0 23 -4 30 -20 30 -19 0 -20 -7 -20 -190z"/>
<path d="M3541 760 c0 -68 3 -98 9 -85 12 28 12 157 0 175 -7 10 -10 -19 -9
-90z"/>
<path d="M1259 618 c-35 -77 -148 -187 -231 -227 -80 -38 -204 -71 -265 -71
-53 0 -50 -9 21 -48 180 -102 369 -74 484 73 l22 27 45 -50 c120 -133 309
-149 478 -40 l52 33 -70 7 c-214 23 -386 130 -471 292 -16 31 -32 56 -35 56
-3 0 -16 -24 -30 -52z"/>
</g>
</svg>
